# xmcd CD database file
#
# Track frame offsets:
#	182
#	10225
#	30022
#	46650
#	62177
#	78360
#	98355
#	117632
#	135267
#	147737
#	161170
#	172820
#	190662
#	205225
#
# Disc length: 2874 seconds
#
# Revision: 0
# Processed by: cddbd v1.5.2PL0 Copyright (c) Steve Scherf et al.
# Submitted via: CDex 1.70beta2
#
DISCID=ac0b380e
DTITLE=Lokalka - Live II Jak nam zobak narost
DYEAR=1993
DGENRE=Country
TTITLE0=Folsom email blues
TTITLE1=Panenka II
TTITLE2=Zachytko
TTITLE3=WC
TTITLE4=Lasko, mne ubyva kil
TTITLE5=Indulona
TTITLE6=Leta bezi
TTITLE7=Dva
TTITLE8=Svatebni obrad
TTITLE9=Krouzek
TTITLE10=Oldrich a Bozena
TTITLE11=Nesmelost
TTITLE12=Zahranicni student
TTITLE13=Sever proti jihu
EXTD=YEAR: 1993
EXTT0=
EXTT1=
EXTT2=
EXTT3=
EXTT4=
EXTT5=
EXTT6=
EXTT7=
EXTT8=
EXTT9=
EXTT10=
EXTT11=
EXTT12=
EXTT13=
PLAYORDER=
